<svg xmlns="http://www.w3.org/2000/svg" width="200" height="200" viewBox="0 0 200 200">
  <defs>
    <linearGradient id="skyGradient" x1="0%" y1="0%" x2="0%" y2="100%">
      <stop offset="0%" style="stop-color:#87CEEB;stop-opacity:1" />
      <stop offset="100%" style="stop-color:#4682B4;stop-opacity:1" />
    </linearGradient>
  </defs>
  
  <!-- Background circle -->
  <circle cx="100" cy="100" r="95" fill="url(#skyGradient)" stroke="#fff" stroke-width="10"/>
  
  <!-- Sun -->
  <circle cx="100" cy="80" r="25" fill="#FFD700"/>
  
  <!-- Sun rays -->
  <g stroke="#FFD700" stroke-width="3" stroke-linecap="round">
    <line x1="100" y1="30" x2="100" y2="40" />
    <line x1="127" y1="37" x2="122" y2="45" />
    <line x1="145" y1="55" x2="137" y2="63" />
    <line x1="148" y1="80" x2="138" y2="80" />
    <line x1="145" y1="105" x2="137" y2="97" />
    <line x1="127" y1="123" x2="122" y2="115" />
    <line x1="73" y1="123" x2="78" y2="115" />
    <line x1="55" y1="105" x2="63" y2="97" />
    <line x1="52" y1="80" x2="62" y2="80" />
    <line x1="55" y1="55" x2="63" y2="63" />
    <line x1="73" y1="37" x2="78" y2="45" />
  </g>
  
  <!-- Cloud -->
  <ellipse cx="90" cy="130" rx="25" ry="15" fill="#fff" opacity="0.9"/>
  <ellipse cx="110" cy="125" rx="30" ry="18" fill="#fff" opacity="0.9"/>
  <ellipse cx="130" cy="135" rx="20" ry="12" fill="#fff" opacity="0.9"/>
</svg> 